# xmcd CD database file
#
# Track frame offsets:
#	150
#	12851
#	21375
#	31377
#	40707
#	51191
#	61191
#	71136
#	83299
#	95197
#	102928
#	113066
#	124385
#
# Disc length: 1787 seconds
#
# Revision: 0
# Processed by: cddbd v1.5.2PL0 Copyright (c) Steve Scherf et al.
# Submitted via: CDex 1.70beta2
#
DISCID=a806f90d
DTITLE=Johnny Cash - Portrait Collection
DYEAR=2007
DGENRE=Blues
TTITLE0=Folsom Prison Blues
TTITLE1=Guess Things Happen That Way
TTITLE2=Ballad Of A Teenage Queen
TTITLE3=Luther Played The Boogie
TTITLE4=Straight A's In Love
TTITLE5=Hey Porter
TTITLE6=Rock Island Line'
TTITLE7=Home of The Blues
TTITLE8=Thanks A Lot
TTITLE9=Come In Stranger
TTITLE10=Get Rhythm
TTITLE11=Oh Lonesome Me
TTITLE12=Down The Street
EXTD=YEAR: 2007
EXTT0=
EXTT1=
EXTT2=
EXTT3=
EXTT4=
EXTT5=
EXTT6=
EXTT7=
EXTT8=
EXTT9=
EXTT10=
EXTT11=
EXTT12=
PLAYORDER=
